<svg width="118" height="38" viewBox="0 0 118 38" fill="none" xmlns="http://www.w3.org/2000/svg">
<path d="M7.56649 33.9218C7.56649 35.2863 7.23499 36.2157 6.43549 36.9079C5.98699 37.3627 5.30449 37.4814 4.40749 37.4814C3.27649 37.4814 2.49649 37.0265 1.81399 36.2157C1.24849 35.4049 1.01449 34.6139 1.01449 33.7042C1.01449 32.5572 1.24849 31.6476 1.91149 30.8368C2.24299 30.5006 2.59399 30.1446 2.92549 29.9271C3.37399 29.6898 3.82249 29.5909 4.38799 29.5909C4.95349 29.5909 5.40199 29.7096 5.96749 29.8282C6.41599 29.9469 6.76699 30.1644 6.98149 30.5204C7.09849 30.639 7.09849 30.7577 7.09849 30.8566C7.09849 30.9752 7.09849 31.0939 6.98149 31.1927C6.86449 31.3114 6.74749 31.3114 6.64999 31.3114C6.53299 31.3114 6.41599 31.3114 6.31849 31.1927C5.98699 30.9554 5.75299 30.7379 5.51899 30.6192C5.18749 30.5006 4.95349 30.3819 4.50499 30.3819C3.70549 30.3819 3.04249 30.7181 2.59399 31.4103C2.26249 31.9838 2.02849 32.6759 2.02849 33.4669C2.02849 34.6139 2.35999 35.4049 2.92549 36.0971C3.25699 36.4332 3.72499 36.6706 4.27099 36.6706C4.60249 36.6706 5.07049 36.5519 5.40199 36.4332C6.20149 36.0971 6.64999 35.2863 6.64999 34.2579V33.9218H5.32399C5.08999 33.9218 4.87549 33.8031 4.87549 33.4669C4.87549 33.1307 4.99249 33.0121 5.32399 33.0121H7.02049C7.35199 33.0121 7.58599 33.3483 7.58599 33.8229V33.9218H7.56649ZM117.683 33.9218C117.683 35.2863 117.351 36.2157 116.552 36.9079C116.103 37.3627 115.421 37.4814 114.524 37.4814C113.393 37.4814 112.613 37.0265 111.93 36.2157C111.365 35.4049 111.131 34.6139 111.131 33.7042C111.131 32.5572 111.365 31.6476 112.028 30.8368C112.359 30.5006 112.71 30.1446 113.042 29.9271C113.49 29.6898 113.939 29.5909 114.504 29.5909C115.07 29.5909 115.518 29.7096 116.084 29.8282C116.532 29.9469 116.883 30.1644 117.098 30.5204C117.215 30.639 117.215 30.7577 117.215 30.8566C117.215 30.9752 117.215 31.0939 117.098 31.1927C116.981 31.3114 116.864 31.3114 116.766 31.3114C116.669 31.3114 116.532 31.3114 116.435 31.1927C116.103 30.9554 115.869 30.7379 115.635 30.6192C115.304 30.5006 115.07 30.3819 114.621 30.3819C113.822 30.3819 113.159 30.7181 112.71 31.4103C112.379 31.9838 112.145 32.6759 112.145 33.4669C112.145 34.6139 112.476 35.4049 113.042 36.0971C113.373 36.4332 113.841 36.6706 114.387 36.6706C114.719 36.6706 115.187 36.5519 115.518 36.4332C116.318 36.0971 116.766 35.2863 116.766 34.2579V33.9218H115.421C115.187 33.9218 114.972 33.8031 114.972 33.4669C114.972 33.1307 115.089 33.0121 115.421 33.0121H117.117C117.566 33.0121 117.8 33.2494 117.8 33.7042V33.9415H117.683V33.9218ZM54.2105 36.9079C54.2105 37.3627 54.0935 37.6 53.762 37.6C53.528 37.6 53.3135 37.4813 53.3135 37.1452L52.4165 30.8368L50.603 37.1452C50.486 37.3825 50.369 37.4814 50.1545 37.4814C49.9205 37.4814 49.706 37.3627 49.706 37.1452L47.8925 30.8368L46.9955 37.1452C46.9955 37.4813 46.7615 37.6 46.43 37.6C46.196 37.6 45.9815 37.3627 45.9815 37.0265C45.9815 36.9079 45.9815 36.9079 45.9815 36.7892L47.1125 30.2633C47.1125 30.026 47.2295 29.9271 47.3465 29.8084C47.4635 29.6898 47.678 29.5711 47.795 29.5711C48.029 29.5711 48.1265 29.5711 48.2435 29.6898C48.3605 29.8085 48.4775 29.9271 48.4775 30.026L50.057 35.6422L51.6365 29.9073C51.6365 29.7887 51.7535 29.67 51.8705 29.5711C51.9875 29.4525 52.1045 29.4525 52.319 29.4525C52.553 29.4525 52.6505 29.4525 52.7675 29.5711C52.8845 29.6898 53.0015 29.8084 53.0015 30.026L54.2105 36.9079ZM71.8385 37.0265C71.8385 37.3627 71.7215 37.6 71.39 37.6C71.0585 37.6 70.9415 37.4813 70.9415 37.1452V30.2831C70.9415 29.9469 71.0585 29.8282 71.39 29.8282C71.7215 29.8282 71.8385 29.9469 71.8385 30.2831V37.0265ZM94.5365 37.0265C94.5365 37.3627 94.4195 37.4814 94.088 37.4814C93.854 37.4814 93.7565 37.3627 93.5225 37.1452L89.4665 31.3114V36.9276C89.4665 37.2638 89.3495 37.3825 89.018 37.3825C88.6865 37.3825 88.5695 37.2638 88.5695 36.9276V30.0655C88.5695 29.7293 88.6865 29.6107 88.901 29.6107C89.135 29.6107 89.2325 29.7293 89.4665 29.9469L93.425 35.7807V30.1446C93.425 30.026 93.425 29.9073 93.542 29.8084C93.659 29.6898 93.776 29.6898 93.8735 29.6898C94.205 29.6898 94.322 29.8084 94.322 30.1446V37.0067H94.5365V37.0265ZM29.933 37.1452C29.933 37.3825 29.816 37.4814 29.4845 37.4814C29.3675 37.4814 29.2505 37.4814 29.153 37.3627C29.036 37.3627 29.036 37.3627 29.036 37.244L28.5875 35.8795H25.0775L24.395 37.244C24.278 37.4813 24.161 37.5802 23.9465 37.5802C23.7125 37.5802 23.498 37.4616 23.498 37.244V37.1254V37.0067L25.9745 30.3622C26.0915 30.1249 26.0915 30.026 26.2085 29.9073C26.3255 29.7887 26.4425 29.7887 26.54 29.7887C26.657 29.7887 26.774 29.7887 26.9885 29.9073C27.1055 30.026 27.2225 30.1446 27.2225 30.3622L29.699 37.0067C29.933 37.0265 29.933 37.1452 29.933 37.1452ZM28.2365 34.9699L26.774 30.7379L25.1945 34.9699H28.2365ZM98.8265 0.600006C100.503 0.600006 101.868 1.98429 101.868 3.68499C101.868 5.38568 100.503 6.76996 98.8265 6.76996C97.1495 6.76996 95.7845 5.38568 95.7845 3.68499C95.7845 1.98429 97.1495 0.600006 98.8265 0.600006ZM117.8 3.70476C117.8 5.42523 116.454 6.78974 114.758 6.78974C113.061 6.78974 111.716 5.42523 111.716 3.70476C111.716 1.98429 113.061 0.61978 114.758 0.61978C116.454 0.61978 117.8 1.98429 117.8 3.70476ZM98.8265 15.7283C100.503 15.7283 101.868 17.1126 101.868 18.8133C101.868 20.514 100.503 21.8982 98.8265 21.8982C97.1495 21.8982 95.7845 20.514 95.7845 18.8133C95.7845 17.1126 97.1495 15.7283 98.8265 15.7283ZM117.8 18.8133C117.8 20.5337 116.454 21.8982 114.758 21.8982C113.061 21.8982 111.716 20.5337 111.716 18.8133C111.716 17.0928 113.061 15.7283 114.758 15.7283C116.454 15.7283 117.8 17.0928 117.8 18.8133ZM109.902 11.259C109.902 12.9795 108.557 14.344 106.86 14.344C105.164 14.344 103.818 12.9795 103.818 11.259C103.818 9.53854 105.164 8.17403 106.86 8.17403C108.557 8.17403 109.902 9.53854 109.902 11.259ZM90.695 21.2259L82.232 0.955963C82.115 0.718657 81.998 0.61978 81.7835 0.61978H80.087H79.853H78.1565C77.9225 0.61978 77.825 0.738432 77.708 0.955963L69.128 21.2259V21.3445C69.128 21.5818 69.245 21.6807 69.4595 21.6807H73.301C73.535 21.6807 73.6325 21.5621 73.7495 21.3445L75.563 16.6577H84.5915L86.405 21.3445C86.522 21.5818 86.639 21.6807 86.8535 21.6807H90.695C90.929 21.6807 91.0265 21.5621 91.0265 21.3445C90.812 21.3248 90.812 21.2259 90.695 21.2259ZM76.811 12.9795L79.97 4.85174L83.129 12.9795H76.811ZM30.4985 7.12593C30.7325 6.31513 31.064 5.97894 31.064 5.97894C31.064 5.97894 31.5125 5.16815 32.5265 4.71331C33.5405 4.25847 34.4375 4.25848 34.4375 4.25848H42.0035C42.2375 4.25848 42.452 4.02117 42.452 3.80364V1.05484C42.452 0.817534 42.218 0.600006 42.0035 0.600006H33.638C29.0165 0.600006 25.2725 4.71331 25.2725 9.75607V11.0217V11.1404V11.3777V11.4963V12.762C25.2725 17.8047 28.997 21.918 33.638 21.918H42.0035C42.2375 21.918 42.452 21.6807 42.452 21.4632V18.5957C42.452 18.3584 42.218 18.1409 42.0035 18.1409H34.4375C34.4375 18.1409 33.4235 18.1409 32.5265 17.6861C31.5125 17.2312 31.064 16.4204 31.064 16.4204C31.064 16.4204 30.7325 15.9656 30.4985 15.2734C30.2645 14.4626 30.2645 13.4343 30.2645 13.4343V12.9795H42.0035C42.2375 12.9795 42.452 12.7422 42.452 12.5246V9.65719C42.452 9.41989 42.218 9.20236 42.0035 9.20236H30.284V8.96505C30.284 8.96505 30.3815 7.93672 30.4985 7.12593ZM56.4725 21.6807H63.356C63.59 21.6807 63.6875 21.4434 63.6875 21.2259V18.3584C63.6875 18.1211 63.5705 17.9036 63.356 17.9036H57.1355C57.1355 17.9036 56.336 17.9036 55.556 17.4487C54.7565 16.9939 54.308 16.1831 54.308 16.1831C54.308 16.1831 53.8595 15.7283 53.8595 14.9175C53.8595 14.2253 53.8595 13.3157 53.8595 13.3157V11.259V0.955963C53.8595 0.718657 53.7425 0.61978 53.528 0.61978H49.9205C49.6865 0.61978 49.472 0.857087 49.472 1.07462C49.472 1.07462 49.472 1.07462 49.472 1.19327V11.3777V12.7422V14.9175V15.0361C49.589 18.6946 52.631 21.6807 56.4725 21.6807ZM19.442 21.2259L14.5865 12.9795C17.063 12.406 18.7595 10.6855 18.7595 6.9084C18.8765 1.86564 15.4835 0.718659 11.3105 0.600006H10.2965H1.24849C1.01449 0.600006 0.799988 0.83731 0.799988 1.05484V21.3247C0.799988 21.5621 1.03399 21.7796 1.24849 21.7796H4.85599C5.08999 21.7796 5.30449 21.5423 5.30449 21.3247V13.4145H10.394L14.918 21.4434C15.035 21.6807 15.2495 21.7796 15.4835 21.7796H19.325C19.559 21.7796 19.6565 21.6609 19.6565 21.4434C19.442 21.3248 19.442 21.2259 19.442 21.2259ZM11.408 9.65719L10.277 9.77585H5.20699V4.39691H10.394H11.408C13.787 4.39691 14.45 5.54389 14.45 7.02705C14.3525 8.51021 13.67 9.65719 11.408 9.65719Z" fill="black"/>
</svg>
