<svg width="129" height="18" viewBox="0 0 129 18" fill="none" xmlns="http://www.w3.org/2000/svg">
<path d="M3.15173 10.746H4.50659V11.196C4.50659 12.33 5.06391 12.798 6.5533 12.798H9.66659C11.8478 12.798 12.5397 12.708 12.5397 11.34V11.268C12.5397 10.386 12.2994 9.9 10.5602 9.9H6.08246C4.03576 9.9 3.27665 9.198 3.27665 7.461V6.921C3.27665 5.427 4.07419 4.608 7.65833 4.608H9.8876C13.1642 4.608 13.6255 5.616 13.6255 6.903V7.38H12.2706V7.29C12.2706 5.886 11.3866 5.85 9.80112 5.85H7.26436C5.17922 5.85 4.7276 6.066 4.7276 7.11V7.452C4.7276 8.208 4.96782 8.64 6.48604 8.64H10.3296C12.5108 8.64 14.0002 8.874 14.0002 11.349V11.385C14.0002 13.95 11.771 14.04 9.9933 14.04H7.3124C5.16 14.04 3.15173 14.04 3.15173 11.295V10.746V10.746Z" fill="black"/>
<path d="M15.9701 4.743H17.3249V6.201H17.3634C17.7862 5.085 18.9681 4.599 20.2556 4.599H23.0134C25.0793 4.599 27.0011 5.301 27.0011 8.46V10.08C27.0011 13.041 25.7616 14.049 22.7732 14.049H19.9962C18.4588 14.049 17.7669 13.635 17.4594 12.681H17.421V17.1H15.9701V4.743ZM25.5502 8.478C25.5502 6.696 25.0121 5.859 22.9654 5.859H20.0731C18.1609 5.859 17.4306 6.921 17.4306 8.496V10.242C17.4306 12.429 18.7182 12.789 20.2556 12.789H22.8405C24.5316 12.789 25.5502 12.393 25.5502 10.278V8.478V8.478Z" fill="black"/>
<path d="M45.4407 4.743H46.7955V6.075H46.834C47.3721 4.887 48.4771 4.599 49.4764 4.599H50.8505C53.5698 4.599 54.4731 5.535 54.4731 7.776V8.874H53.1182V8.478C53.1182 6.219 52.6762 5.859 50.0914 5.859H49.1978C47.6603 5.859 46.9108 6.903 46.9108 8.082V13.905H45.4599V4.743H45.4407Z" fill="black"/>
<path d="M57.4038 6.003H55.5108V4.743H57.4038V2.574H58.8547V4.743H64.6201V6.003H58.8547V10.566C58.8547 12.276 59.4121 12.789 61.0072 12.789H61.4684C63.3998 12.789 63.6977 12.357 63.6977 10.44V9.756H64.8796V10.764C64.8796 12.6 64.7066 14.049 61.5645 14.049H60.7669C58.0476 14.049 57.4038 12.645 57.4038 11.16V6.003V6.003Z" fill="black"/>
<path d="M66.7341 4.743H69.7801V6.489H69.8186C70.1933 5.031 71.5097 4.599 72.9799 4.599C75.3437 4.599 76.2757 5.679 76.2757 8.208C76.2757 8.442 76.2565 8.694 76.2373 9.018H73.4315C73.4315 7.848 73.1817 7.29 71.8749 7.29C70.7602 7.29 69.9819 7.74 69.9819 8.838V13.905H66.7341V4.743V4.743Z" fill="black"/>
<path d="M77.4769 10.692C77.4769 8.199 79.1008 8.055 82.2429 8.055C84.0206 8.055 85.0007 8.109 85.6253 8.793V7.983C85.6253 7.083 85.3754 6.759 84.107 6.759H82.1949C81.2436 6.759 80.9745 6.849 80.9457 7.497H77.8036C77.8036 5.022 78.9566 4.608 81.6952 4.608H85.4715C87.7008 4.608 88.8923 5.742 88.8923 7.893V13.905H85.8174V12.861C84.9238 13.851 84.5779 14.049 82.954 14.049H80.7343C78.7549 14.067 77.4865 13.599 77.4865 11.448V10.692H77.4769ZM83.2615 11.889C85.4907 11.889 85.6925 11.529 85.6925 10.917C85.6925 10.233 85.5099 9.981 83.7131 9.981H82.2717C80.8977 9.981 80.6094 10.305 80.6094 11.061C80.6094 11.655 81.0514 11.889 82.3198 11.889H83.2615V11.889Z" fill="black"/>
<path d="M90.5162 8.496C90.5162 6.165 91.0255 4.599 95.1381 4.599H96.099C97.4346 4.599 98.8087 4.995 99.0105 6.435H99.0489V0.900002H102.297V13.905H99.2507V12.213H99.2123C98.8568 13.347 98.04 14.049 96.0798 14.049H95.1285C91.0159 14.049 90.5066 12.483 90.5066 10.152V8.496H90.5162ZM93.6583 9.864C93.6583 10.89 93.8121 11.466 95.3687 11.466H97.2809C98.5685 11.466 99.2411 11.16 99.2411 9.774V8.874C99.2411 7.488 98.5685 7.182 97.2809 7.182H95.3687C93.8121 7.182 93.6583 7.758 93.6583 8.784V9.864Z" fill="black"/>
<path d="M104.094 10.692C104.094 8.199 105.718 8.055 108.86 8.055C110.637 8.055 111.617 8.109 112.242 8.793V7.983C112.242 7.083 111.992 6.759 110.724 6.759H108.812C107.86 6.759 107.591 6.849 107.562 7.497H104.42C104.42 5.022 105.573 4.608 108.312 4.608H112.088C114.318 4.608 115.509 5.742 115.509 7.893V13.905H112.434V12.861C111.541 13.851 111.204 14.049 109.58 14.049H107.361C105.381 14.067 104.113 13.599 104.113 11.448V10.692H104.094ZM109.878 11.889C112.107 11.889 112.309 11.529 112.309 10.917C112.309 10.233 112.127 9.981 110.33 9.981H108.888C107.514 9.981 107.236 10.305 107.236 11.061C107.236 11.655 107.678 11.889 108.946 11.889H109.878V11.889Z" fill="black"/>
<path d="M117.575 4.743H120.621V6.489H120.659C121.034 5.031 122.351 4.599 123.821 4.599C126.185 4.599 127.117 5.679 127.117 8.208C127.117 8.442 127.097 8.694 127.078 9.018H124.272C124.272 7.848 124.023 7.29 122.716 7.29C121.601 7.29 120.823 7.74 120.823 8.838V13.905H117.575V4.743V4.743Z" fill="black"/>
<path d="M37.6094 5.841H34.6498C32.9587 5.841 31.7768 6.255 31.7768 8.388V10.224C31.7768 12.357 32.9587 12.771 34.6498 12.771H37.6094C39.3006 12.771 40.4825 12.357 40.4825 10.224V8.388C40.4825 6.246 39.3006 5.841 37.6094 5.841Z" fill="#C41230"/>
<path d="M37.4556 3.267H34.794C31.2675 3.267 28.6923 4.167 28.6923 8.019V10.593C28.6923 14.454 31.2675 15.345 34.794 15.345H37.4556C40.9821 15.345 43.5573 14.454 43.5573 10.593V8.019C43.5573 4.158 40.9821 3.267 37.4556 3.267ZM41.943 10.305C41.943 13.32 39.9347 14.022 37.177 14.022H35.0918C32.3341 14.022 30.3258 13.32 30.3258 10.305V8.298C30.3258 5.283 32.3341 4.581 35.0918 4.581H37.177C39.9347 4.581 41.943 5.283 41.943 8.298V10.305Z" fill="#C41230"/>
</svg>
